<?xml version="1.0" encoding="UTF-8"?>
<svg version="1.1" xmlns="http://www.w3.org/2000/svg" width="500" height="500">
<path d="M0 0 C1.25499298 0.00506058 1.25499298 0.00506058 2.53533936 0.01022339 C15.1673561 0.08397576 27.1657015 0.6879632 39.3125 4.4375 C40.1379834 4.68419434 40.9634668 4.93088867 41.81396484 5.18505859 C53.35182197 8.7093731 63.93593799 13.30423245 74.3125 19.4375 C75.29605469 20.01371094 76.27960938 20.58992188 77.29296875 21.18359375 C83.26976805 24.83374057 88.65206163 29.00332166 94 33.51953125 C96.35840723 35.54337156 96.35840723 35.54337156 99.3125 37.4375 C99.3125 38.0975 99.3125 38.7575 99.3125 39.4375 C99.9725 39.4375 100.6325 39.4375 101.3125 39.4375 C101.3125 40.0975 101.3125 40.7575 101.3125 41.4375 C101.9725 41.4375 102.6325 41.4375 103.3125 41.4375 C103.3125 42.0975 103.3125 42.7575 103.3125 43.4375 C103.9725 43.4375 104.6325 43.4375 105.3125 43.4375 C105.3125 44.0975 105.3125 44.7575 105.3125 45.4375 C105.9725 45.4375 106.6325 45.4375 107.3125 45.4375 C108.91884015 47.17141951 110.4500287 48.975591 111.9375 50.8125 C112.75476563 51.81023437 113.57203125 52.80796875 114.4140625 53.8359375 C116.3125 56.4375 116.3125 56.4375 116.3125 58.4375 C116.9725 58.4375 117.6325 58.4375 118.3125 58.4375 C119.79377425 60.57643544 121.12906965 62.69475306 122.4375 64.9375 C122.83420898 65.61095459 123.23091797 66.28440918 123.63964844 66.97827148 C144.37609781 102.64842873 151.8013039 141.97746755 141.4296875 182.3203125 C138.10683771 194.71286049 133.58780168 205.40793905 127.35546875 216.56445312 C125.9964557 219.00507769 124.68955571 221.47270804 123.375 223.9375 C120.37473183 229.41988417 117.17879355 234.78479943 113.99560547 240.16210938 C110.63494553 245.85192695 107.44095697 251.61689905 104.3125 257.4375 C102.65403846 260.44208682 100.98483512 263.44061628 99.3125 266.4375 C98.6525 266.4375 97.9925 266.4375 97.3125 266.4375 C97.25449219 267.09492188 97.19648438 267.75234375 97.13671875 268.4296875 C95.96372846 272.71026818 93.60055707 275.91533303 91.125 279.5625 C87.39268586 285.18520702 83.90704535 290.8067054 80.7578125 296.78125 C78.48852298 300.95183615 75.95641075 304.95376539 73.44921875 308.984375 C71.19565439 312.61089613 69.0019249 316.27201079 66.8125 319.9375 C60.94092772 329.75071273 54.96778941 339.49385475 48.7578125 349.09765625 C47.47838516 351.16894538 46.35761899 353.24072077 45.3125 355.4375 C44.6525 355.4375 43.9925 355.4375 43.3125 355.4375 C43.19028076 356.02450684 43.06806152 356.61151367 42.94213867 357.21630859 C42.30454369 359.46556765 41.49492084 361.01651748 40.23828125 362.9765625 C39.82054443 363.6351123 39.40280762 364.29366211 38.97241211 364.97216797 C38.30544312 366.00688232 38.30544312 366.00688232 37.625 367.0625 C36.71548128 368.49436976 35.80662622 369.92666129 34.8984375 371.359375 C34.4559668 372.05482422 34.01349609 372.75027344 33.55761719 373.46679688 C29.20166246 380.31802906 29.20166246 380.31802906 25.3125 387.4375 C24.6525 387.4375 23.9925 387.4375 23.3125 387.4375 C23.02375 388.365625 22.735 389.29375 22.4375 390.25 C21.3125 393.4375 21.3125 393.4375 19.3125 396.4375 C18.6525 396.4375 17.9925 396.4375 17.3125 396.4375 C17.3125 397.4275 17.3125 398.4175 17.3125 399.4375 C16.6525 399.4375 15.9925 399.4375 15.3125 399.4375 C15.085625 400.035625 14.85875 400.63375 14.625 401.25 C12.82305239 404.25324602 11.56417492 405.04392503 8.3125 406.4375 C1.28648494 407.90078771 -5.29899702 408.02223113 -11.6875 404.4375 C-13.83308196 402.54818193 -15.08804762 400.86247619 -16.6875 398.4375 C-16.6875 397.7775 -16.6875 397.1175 -16.6875 396.4375 C-17.3475 396.4375 -18.0075 396.4375 -18.6875 396.4375 C-18.6875 395.4475 -18.6875 394.4575 -18.6875 393.4375 C-19.3475 393.4375 -20.0075 393.4375 -20.6875 393.4375 C-21.14898437 392.60089844 -21.61046875 391.76429688 -22.0859375 390.90234375 C-26.09784609 383.71329609 -30.36386075 376.7883701 -34.97631836 369.96972656 C-38.66100924 364.51415902 -42.13282666 358.94734464 -45.54248047 353.31542969 C-46.89257709 351.10115609 -48.2604663 348.89829514 -49.62890625 346.6953125 C-50.64847283 345.04689685 -51.66800428 343.39845947 -52.6875 341.75 C-53.18113037 340.95875732 -53.67476074 340.16751465 -54.18334961 339.35229492 C-54.63846924 338.61342041 -55.09358887 337.8745459 -55.5625 337.11328125 C-55.97242188 336.45239502 -56.38234375 335.79150879 -56.8046875 335.1105957 C-57.6875 333.4375 -57.6875 333.4375 -57.6875 331.4375 C-58.3475 331.4375 -59.0075 331.4375 -59.6875 331.4375 C-59.9868042 330.88932617 -60.2861084 330.34115234 -60.59448242 329.77636719 C-63.59399052 324.32440552 -66.73540102 318.98423455 -70 313.6875 C-70.47348877 312.91398193 -70.94697754 312.14046387 -71.43481445 311.34350586 C-73.66086554 307.71073761 -75.90117854 304.08839908 -78.1796875 300.48828125 C-78.73982544 299.59737793 -78.73982544 299.59737793 -79.3112793 298.68847656 C-80.31026717 297.10275241 -81.31698035 295.52190258 -82.32421875 293.94140625 C-83.6875 291.4375 -83.6875 291.4375 -83.6875 288.4375 C-84.3475 288.4375 -85.0075 288.4375 -85.6875 288.4375 C-87.01953125 286.56640625 -87.01953125 286.56640625 -88.5 284 C-89.02464844 283.0925 -89.54929688 282.185 -90.08984375 281.25 C-90.61707031 280.321875 -91.14429688 279.39375 -91.6875 278.4375 C-92.18378906 277.591875 -92.68007812 276.74625 -93.19140625 275.875 C-96.6875 269.81908832 -96.6875 269.81908832 -96.6875 266.4375 C-97.3475 266.4375 -98.0075 266.4375 -98.6875 266.4375 C-99.12775513 265.64025513 -99.12775513 265.64025513 -99.5769043 264.8269043 C-102.83649977 258.93998172 -106.15571251 253.08914646 -109.5 247.25 C-110.29047729 245.86699707 -110.29047729 245.86699707 -111.09692383 244.45605469 C-113.36673566 240.48570413 -115.63855203 236.51668393 -117.9296875 232.55859375 C-119.86994183 229.19626546 -121.78559399 225.8216607 -123.6875 222.4375 C-124.0494043 221.7995752 -124.41130859 221.16165039 -124.78417969 220.50439453 C-145.13113133 184.41587545 -150.84144128 145.12653297 -139.95703125 104.98046875 C-139.53446149 103.46597625 -139.11134821 101.95163521 -138.6875 100.4375 C-138.40261719 99.36113281 -138.11773437 98.28476563 -137.82421875 97.17578125 C-133.3239882 81.88352862 -124.33755486 67.96371127 -114.6875 55.4375 C-113.91664063 54.42042969 -113.14578125 53.40335938 -112.3515625 52.35546875 C-108.41587532 47.27601689 -108.41587532 47.27601689 -106.6875 45.4375 C-106.0275 45.4375 -105.3675 45.4375 -104.6875 45.4375 C-104.6875 44.7775 -104.6875 44.1175 -104.6875 43.4375 C-104.0275 43.4375 -103.3675 43.4375 -102.6875 43.4375 C-102.6875 42.7775 -102.6875 42.1175 -102.6875 41.4375 C-102.0275 41.4375 -101.3675 41.4375 -100.6875 41.4375 C-100.6875 40.7775 -100.6875 40.1175 -100.6875 39.4375 C-81.754307 21.78605121 -58.78253163 9.47667338 -33.6875 3.4375 C-32.62829346 3.17638428 -31.56908691 2.91526855 -30.4777832 2.64624023 C-20.2737231 0.3479547 -10.43603629 -0.08175219 0 0 Z " fill="#BF492B" transform="translate(249.6875,47.5625)"/>
<path d="M0 0 C55.44 0 110.88 0 168 0 C166.49116401 18.10603191 161.0380269 31.38906018 149 45 C148.19820312 45.90878906 147.39640625 46.81757813 146.5703125 47.75390625 C137.6234588 57.29810182 127.30035351 63.66029424 115 68 C115 69.32 115 70.64 115 72 C117.31 72.99 119.62 73.98 122 75 C122 75.66 122 76.32 122 77 C122.61875 77.20625 123.2375 77.4125 123.875 77.625 C126 79 126 79 128 85 C98.96 85 69.92 85 40 85 C42 79 42 79 44.125 77.625 C45.053125 77.315625 45.053125 77.315625 46 77 C46 76.34 46 75.68 46 75 C47.134375 74.5875 48.26875 74.175 49.4375 73.75 C53.11915178 72.46196337 53.11915178 72.46196337 53.72265625 69.890625 C53.85994141 68.95476562 53.85994141 68.95476562 54 68 C52.7625 67.649375 51.525 67.29875 50.25 66.9375 C42.90551256 64.51265335 36.40311914 60.26874609 30 56 C30 55.34 30 54.68 30 54 C29.44183594 53.76667969 28.88367188 53.53335938 28.30859375 53.29296875 C13.88116638 45.21263294 5.60963104 27.02398264 1 12 C0.67 8.04 0.34 4.08 0 0 Z " fill="#F0EADD" transform="translate(166,209)"/>
<path d="M0 0 C5.34161953 0.32373452 8.52857333 3.20050443 12 7 C18.56026959 16.18731267 19.72949279 23.8101017 19 35 C18.0694403 39.94701959 16.53099067 44.31222901 13.9375 48.625 C9.25269472 56.78562855 8.74255817 66.349236 10.875 75.4375 C11.83705869 78.85367775 11.83705869 78.85367775 13.1875 81.25 C14.24150171 83.52015752 13.82341154 84.69444768 13 87 C8.73183034 86.50751888 5.82126526 84.05752885 3 81 C-3.78829651 71.34839359 -6.21151474 62.81226872 -5 51 C-3.32236573 44.76049101 -0.85581741 38.89874089 1.75 33 C4.59534804 26.17116471 5.72021852 16.64233644 3.10546875 9.5859375 C2.04568301 7.52241415 2.04568301 7.52241415 0.875 5.71875 C0 4 0 4 0 0 Z " fill="#F2EADE" transform="translate(243,102)"/>
<path d="M0 0 C4.48280187 1.40888059 6.85942414 3.54536655 10 7 C10.86625 7.94875 11.7325 8.8975 12.625 9.875 C18.23622699 17.2581934 20.01628436 25.88128414 19 35 C17.36357853 41.4354606 14.93484945 47.34688432 11.8828125 53.22265625 C8.31424263 60.40716639 7.4828915 69.17823342 9.8984375 76.85546875 C10.59860077 78.53635717 11.3370474 80.20218209 12.125 81.84375 C13 84 13 84 13 88 C7.10035781 87.40691428 4.76367588 84.13401842 1.09375 79.78515625 C-5.29575062 71.28568994 -6.41892676 61.89219219 -5.44335938 51.47363281 C-4.49232817 46.16754904 -2.06876068 41.3785482 0.12695312 36.49194336 C2.6439744 30.63621443 3.77121316 25.56735922 3.75 19.1875 C3.75257813 18.46498047 3.75515625 17.74246094 3.7578125 16.99804688 C3.53452105 11.59337879 1.75523484 8.46614679 -1 4 C-0.75 1.5625 -0.75 1.5625 0 0 Z " fill="#F2E9DD" transform="translate(274,101)"/>
<path d="M0 0 C4.12238573 0.10054599 6.52439073 1.08209684 9.5 3.8125 C16.8388994 11.90326882 19.80247848 20.07598378 19.57885742 30.84765625 C19.25146638 36.86677099 17.65288442 41.60430287 15 47 C14.24791814 48.94964775 13.51893991 50.90835409 12.8125 52.875 C12.48894531 53.75929687 12.16539062 54.64359375 11.83203125 55.5546875 C9.06551182 63.68539719 9.50140925 70.52590561 12.24609375 78.640625 C13.02428469 81.07599976 13.54102455 83.48677518 14 86 C10.57079488 86.08573013 8.54574224 85.47883131 5.9609375 83.2109375 C-1.77988929 74.77430605 -5.38870071 66.99756928 -5.21484375 55.484375 C-4.54895569 47.78428757 -1.7885637 40.99866997 1.9140625 34.2890625 C5.27803555 27.19809773 5.20308965 16.94521514 3.36328125 9.3828125 C2.65636627 7.55517865 1.83599566 5.7723108 1 4 C0.64076437 2.6734109 0.30092588 1.3410192 0 0 Z " fill="#F3EDE1" transform="translate(212,102)"/>
<path d="M0 0 C0.33 0.66 0.66 1.32 1 2 C0.18251747 4.31867772 -0.69398921 6.50823206 -1.6875 8.75 C-2.46673828 10.56757812 -2.46673828 10.56757812 -3.26171875 12.421875 C-5 16 -5 16 -7.20703125 19.265625 C-9.27417163 21.87316124 -9.27417163 21.87316124 -9 25 C-9.99 25 -10.98 25 -12 25 C-12.33 25.99 -12.66 26.98 -13 28 C-13.66 28 -14.32 28 -15 28 C-15.12117188 28.75925781 -15.24234375 29.51851562 -15.3671875 30.30078125 C-15.53476563 31.29464844 -15.70234375 32.28851563 -15.875 33.3125 C-16.03742188 34.29863281 -16.19984375 35.28476563 -16.3671875 36.30078125 C-17 39 -17 39 -19 42 C-19.58736335 44.54617798 -20.1061907 47.05614767 -20.5625 49.625 C-21.87670261 56.87670261 -21.87670261 56.87670261 -23 58 C-23.37180356 59.97230168 -23.69800668 61.95330952 -24 63.9375 C-24.89193825 69.7838765 -24.89193825 69.7838765 -26 72 C-27.1079556 81.2192849 -27.1021969 90.54061932 -27.125 99.8125 C-27.12959229 100.88064941 -27.13418457 101.94879883 -27.13891602 103.04931641 C-27.13690186 104.0501123 -27.1348877 105.0509082 -27.1328125 106.08203125 C-27.13168457 106.98155518 -27.13055664 107.8810791 -27.12939453 108.80786133 C-27.14171706 111.04467693 -27.14171706 111.04467693 -26 113 C-25.34 113 -24.68 113 -24 113 C-24.03480469 113.99580078 -24.03480469 113.99580078 -24.0703125 115.01171875 C-24.17186299 119.98043923 -23.89134282 123.38985188 -22 128 C-21.8260886 131.00764423 -21.88199371 133.9908395 -22 137 C-23.78100992 134.32848512 -24.37502249 133.0530113 -25.03515625 130.05859375 C-25.20466797 129.31029297 -25.37417969 128.56199219 -25.54882812 127.79101562 C-25.8030957 126.62602539 -25.8030957 126.62602539 -26.0625 125.4375 C-27.10882661 120.07765515 -27.10882661 120.07765515 -29 115 C-32.5654886 90.74426731 -30.5797367 68.50513863 -24 45 C-23.57267578 43.38544922 -23.57267578 43.38544922 -23.13671875 41.73828125 C-18.63384065 26.43703196 -9.62412014 12.55230988 0 0 Z " fill="#CF6D52" transform="translate(135,103)"/>
<path d="M0 0 C1.5386933 0.0101679 3.07738981 0.01985875 4.61608887 0.02911377 C8.75578701 0.05534377 12.89540863 0.08817155 17.03504848 0.12226367 C21.37516588 0.15685827 25.71532384 0.18527449 30.05548096 0.21437073 C38.25745459 0.27028261 46.45937743 0.33168022 54.66129613 0.39509207 C64.00598608 0.46706873 73.35071644 0.53286391 82.69545507 0.59816253 C101.90281696 0.73251594 121.11011506 0.87455839 140.31738281 1.02172852 C140.31738281 1.68172852 140.31738281 2.34172852 140.31738281 3.02172852 C84.87738281 3.02172852 29.43738281 3.02172852 -27.68261719 3.02172852 C-27.68261719 2.36172852 -27.68261719 1.70172852 -27.68261719 1.02172852 C-18.4407124 0.05020532 -9.27985611 -0.08550631 0 0 Z " fill="#B05338" transform="translate(193.6826171875,205.978271484375)"/>
<path d="M0 0 C0 0.66 0 1.32 0 2 C-1.6396875 2.4021875 -1.6396875 2.4021875 -3.3125 2.8125 C-7.51847794 3.86399449 -11.69930972 4.99444271 -15.875 6.16015625 C-18.13612136 6.76783262 -20.40886118 7.33281361 -22.6875 7.87109375 C-29.83804922 9.60827355 -35.71523997 11.56430856 -41.8671875 15.625 C-44.7475923 17.48196426 -47.85201024 18.65918955 -51 20 C-55.6622907 22.63598744 -59.83101259 25.64164903 -64 29 C-64.680625 29.28875 -65.36125 29.5775 -66.0625 29.875 C-68.30159256 30.98278752 -68.30159256 30.98278752 -69.9375 33.9375 C-72.11542091 37.17138256 -73.69560886 38.09997509 -77 40 C-77.70125 40.886875 -78.4025 41.77375 -79.125 42.6875 C-79.74375 43.450625 -80.3625 44.21375 -81 45 C-81.99 45 -82.98 45 -84 45 C-84.66 46.32 -85.32 47.64 -86 49 C-86.66 49 -87.32 49 -88 49 C-88.33 49.66 -88.66 50.32 -89 51 C-89.66 51 -90.32 51 -91 51 C-91.33 51.99 -91.66 52.98 -92 54 C-92.99 53.67 -93.98 53.34 -95 53 C-93.88266271 51.49428343 -92.75589965 49.99555708 -91.625 48.5 C-90.68527344 47.24703125 -90.68527344 47.24703125 -89.7265625 45.96875 C-88.87191406 44.99421875 -88.87191406 44.99421875 -88 44 C-87.34 44 -86.68 44 -86 44 C-86 43.34 -86 42.68 -86 42 C-85.34 42 -84.68 42 -84 42 C-84 41.34 -84 40.68 -84 40 C-83.34 40 -82.68 40 -82 40 C-82 39.34 -82 38.68 -82 38 C-61.48525111 18.8740639 -29.24508322 -0.56240545 0 0 Z " fill="#D47D63" transform="translate(231,49)"/>
<path d="M0 0 C4.12238573 0.10054599 6.52439073 1.08209684 9.5 3.8125 C16.83776541 11.90201865 19.78729303 20.06143255 19.58325195 30.82788086 C19.22692907 37.52659915 17.88091845 44.11908155 13 49 C13.66 45.7 14.32 42.4 15 39 C15.66 39 16.32 39 17 39 C17.16489368 28.95178601 17.16489368 28.95178601 16 19 C12.95086772 17.98888907 12.95086772 17.98888907 10 19 C9.34 18.67 8.68 18.34 8 18 C7.814375 19.9490625 7.814375 19.9490625 7.625 21.9375 C7.4140625 24.15234375 7.4140625 24.15234375 7 26 C6.34 26.33 5.68 26.66 5 27 C4.94392578 25.515 4.94392578 25.515 4.88671875 24 C4.55283254 16.83324141 3.99538196 10.61480182 1 4 C0.64295336 2.67282006 0.30370547 1.34039243 0 0 Z " fill="#F5E4D5" transform="translate(212,102)"/>
<path d="M0 0 C0.33 0 0.66 0 1 0 C0.97679687 0.74765625 0.95359375 1.4953125 0.9296875 2.265625 C0.91164063 3.25046875 0.89359375 4.2353125 0.875 5.25 C0.85179687 6.22453125 0.82859375 7.1990625 0.8046875 8.203125 C1.00137219 11.0196498 1.55431084 12.60949036 3 15 C2.34 15 1.68 15 1 15 C0.9071875 16.0828125 0.9071875 16.0828125 0.8125 17.1875 C0 20 0 20 -2.4375 22.375 C-5.46449008 25.4758191 -5.8585396 27.89074257 -7 32 C-9.0625 33.8125 -9.0625 33.8125 -11 35 C-11.33 35.66 -11.66 36.32 -12 37 C-12.66 37 -13.32 37 -14 37 C-14 39.64 -14 42.28 -14 45 C-15.485 45.495 -15.485 45.495 -17 46 C-17.33 46.99 -17.66 47.98 -18 49 C-18.33 48.34 -18.66 47.68 -19 47 C-25.00704506 50.00938415 -25.00704506 50.00938415 -30.125 54.25 C-32.82715674 56.77201296 -35.40796795 56.72368984 -39 57 C-36.78176374 55.19768304 -34.56995953 53.40440587 -32.23828125 51.75 C-16.17798823 40.28301593 -4.49160789 24.1694768 -0.52734375 4.67578125 C-0.3037646 3.12332323 -0.14200305 1.5620335 0 0 Z " fill="#AE4B32" transform="translate(333,214)"/>
<path d="M0 0 C3 2 3 2 3.6796875 4.16796875 C4.61540542 12.44108452 4.81262759 21.84317585 3 30 C2.36964844 30.77214844 1.73929688 31.54429687 1.08984375 32.33984375 C-5.33131485 40.51331853 -5.7004336 52.00946067 -6 62 C-5.34 62 -4.68 62 -4 62 C-3.46605821 63.4117783 -2.94834896 64.82970244 -2.4375 66.25 C-2.14746094 67.03890625 -1.85742188 67.8278125 -1.55859375 68.640625 C-0.95477163 71.19103452 -1.1526068 72.55322229 -2 75 C-8.625 75.25 -8.625 75.25 -12 73 C-11.67 72.01 -11.34 71.02 -11 70 C-8.36 70.99 -5.72 71.98 -3 73 C-3.27714844 72.33613281 -3.55429688 71.67226562 -3.83984375 70.98828125 C-4.20207031 70.10527344 -4.56429687 69.22226563 -4.9375 68.3125 C-5.29714844 67.44238281 -5.65679687 66.57226562 -6.02734375 65.67578125 C-10.45751215 53.48837019 -6.90489955 42.32823561 -1.8125 30.875 C-1.32716797 29.85019531 -1.32716797 29.85019531 -0.83203125 28.8046875 C1.18339473 24.43320016 1.18349248 20.40435462 1.1875 15.6875 C1.19974609 14.94048828 1.21199219 14.19347656 1.22460938 13.42382812 C1.23656474 8.88477563 0.71951855 5.27500858 -1 1 C-0.67 0.67 -0.34 0.34 0 0 Z " fill="#AA5841" transform="translate(229,115)"/>
<path d="M0 0 C0.33 0.66 0.66 1.32 1 2 C0.18251747 4.31867772 -0.69398921 6.50823206 -1.6875 8.75 C-2.46673828 10.56757812 -2.46673828 10.56757812 -3.26171875 12.421875 C-5 16 -5 16 -7.20703125 19.265625 C-9.27417163 21.87316124 -9.27417163 21.87316124 -9 25 C-9.99 25 -10.98 25 -12 25 C-12.33 25.99 -12.66 26.98 -13 28 C-13.66 28 -14.32 28 -15 28 C-15.08636719 28.73605469 -15.17273438 29.47210938 -15.26171875 30.23046875 C-16.16585054 36.50962258 -16.88059578 40.09308626 -22 44 C-23 42 -23 42 -22.390625 39.6640625 C-19.65606265 32.37813952 -16.34086827 25.58105106 -12.625 18.75 C-12.17930664 17.92322754 -11.73361328 17.09645508 -11.27441406 16.24462891 C-8.02057576 10.38982222 -4.24508407 5.17617355 0 0 Z " fill="#D06D53" transform="translate(135,103)"/>
<path d="M0 0 C0.99 0.33 1.98 0.66 3 1 C4.1875 4.0625 4.1875 4.0625 5 7 C2.41243033 9.58756967 0.65132271 9.24449787 -2.87467957 9.27105713 C-3.69656265 9.26700867 -4.51844574 9.26296021 -5.36523438 9.25878906 C-6.23038162 9.2622937 -7.09552887 9.26579834 -7.9868927 9.26940918 C-10.85592598 9.27823507 -13.72471407 9.27237433 -16.59375 9.265625 C-18.58150276 9.2669714 -20.5692552 9.26891173 -22.55700684 9.27142334 C-26.72667572 9.27437577 -30.89625902 9.27007315 -35.06591797 9.26074219 C-40.41964276 9.2493476 -45.77316704 9.25590644 -51.12688446 9.26788712 C-55.23257975 9.27510251 -59.33822724 9.27281926 -63.44392395 9.26763153 C-65.41836063 9.26629415 -67.39280161 9.26794584 -69.36723328 9.27259064 C-72.12319491 9.27765061 -74.87882852 9.26995313 -77.63476562 9.25878906 C-78.45664871 9.26283752 -79.2785318 9.26688599 -80.12532043 9.27105713 C-85.77147194 9.22852806 -85.77147194 9.22852806 -88 7 C-87.34 5.35 -86.68 3.7 -86 2 C-85.34 2.33 -84.68 2.66 -84 3 C-84.33 4.32 -84.66 5.64 -85 7 C-55.96 7 -26.92 7 3 7 C2.01 4.69 1.02 2.38 0 0 Z " fill="#A74D37" transform="translate(291,287)"/>
<path d="M0 0 C43.29342511 -0.8666685 43.29342511 -0.8666685 58 4 C58.66 4.66 59.32 5.32 60 6 C59.34 6.66 58.68 7.32 58 8 C56.68 8 55.36 8 54 8 C53.505 7.505 53.505 7.505 53 7 C52.38125 7.185625 51.7625 7.37125 51.125 7.5625 C50.073125 7.7790625 50.073125 7.7790625 49 8 C48.01 7.34 47.02 6.68 46 6 C44.68 6 43.36 6 42 6 C42 5.01 42 4.02 42 3 C33.33890569 1.8274514 24.66196363 1.66593792 15.9375 1.4375 C14.38866234 1.39422008 12.83983406 1.35060308 11.29101562 1.30664062 C7.52744068 1.20053934 3.76376805 1.09900464 0 1 C0 0.67 0 0.34 0 0 Z " fill="#C45F44" transform="translate(231,48)"/>
<path d="M0 0 C0.33 0.99 0.66 1.98 1 3 C1.66 2.34 2.32 1.68 3 1 C6.2704774 -0.24052591 8.64961743 0.16240436 12 1 C11.814375 1.9075 11.62875 2.815 11.4375 3.75 C11.02808425 6.79137413 11.24031167 8.15116877 12 11 C11.5625 13.25 11.5625 13.25 11 15 C10.319375 14.071875 9.63875 13.14375 8.9375 12.1875 C6.05694325 8.68613361 3.23212101 7.49368977 -1 6 C-0.67 7.65 -0.34 9.3 0 11 C-0.99 10.67 -1.98 10.34 -3 10 C-3.75 7.25 -3.75 7.25 -4 4 C-2.0625 1.625 -2.0625 1.625 0 0 Z " fill="#C34F2E" transform="translate(244,96)"/>
<path d="M0 0 C0.66 0 1.32 0 2 0 C1.58771609 1.29307226 1.16979706 2.58434733 0.75 3.875 C0.48058594 4.70902344 0.21117187 5.54304687 -0.06640625 6.40234375 C-1 9 -1 9 -2.08984375 11.19140625 C-6.46513358 20.14440146 -6.49907223 31.03601868 -4.09375 40.60546875 C-3.17333049 43.14648403 -2.19514277 45.5777017 -1 48 C-1.99 48 -2.98 48 -4 48 C-4.33 46.35 -4.66 44.7 -5 43 C-5.66 43 -6.32 43 -7 43 C-7 43.66 -7 44.32 -7 45 C-7.66 45 -8.32 45 -9 45 C-8.88909533 41.16612473 -8.75871426 37.33314217 -8.625 33.5 C-8.57859375 31.88351563 -8.57859375 31.88351563 -8.53125 30.234375 C-8.3102891 24.1947772 -7.73041744 18.79619499 -6 13 C-5.34 13 -4.68 13 -4 13 C-3.8453125 11.7315625 -3.8453125 11.7315625 -3.6875 10.4375 C-2.9171146 6.58557299 -1.63725486 3.55924969 0 0 Z " fill="#BA6248" transform="translate(275,131)"/>
<path d="M0 0 C4.74860255 5.98736843 4.48607349 11.59605909 4 19 C2.78357956 26.27168986 0.58318154 32.57498482 -3 39 C-3.33 39 -3.66 39 -4 39 C-4.33 36.36 -4.66 33.72 -5 31 C-4.01 30.67 -3.02 30.34 -2 30 C-1.87625 29.0925 -1.7525 28.185 -1.625 27.25 C-1 24 -1 24 0 22.21875 C1.34971301 19.22407425 1.42890423 16.51826276 1.625 13.25 C1.69976562 12.07953125 1.77453125 10.9090625 1.8515625 9.703125 C1.90054688 8.81109375 1.94953125 7.9190625 2 7 C0.02 7.99 0.02 7.99 -2 9 C-1.34 6.03 -0.68 3.06 0 0 Z " fill="#BB5B42" transform="translate(244,107)"/>
<path d="M0 0 C5.18701457 0.31436452 8.5947359 3.30033267 12 7 C12 7.66 12 8.32 12 9 C10.35 8.67 8.7 8.34 7 8 C6.970271 9.02154175 6.970271 9.02154175 6.93994141 10.0637207 C6.84473017 13.14703917 6.73503534 16.22967649 6.625 19.3125 C6.57859375 20.9202832 6.57859375 20.9202832 6.53125 22.56054688 C6.49257812 23.58857422 6.45390625 24.61660156 6.4140625 25.67578125 C6.36693115 27.0975769 6.36693115 27.0975769 6.31884766 28.5480957 C6 31 6 31 4 34 C3.34 34 2.68 34 2 34 C2.144375 33.41734375 2.28875 32.8346875 2.4375 32.234375 C4.27618119 24.1135331 6.02163024 15.17247188 2 7.5 C1.62875 6.9121875 1.2575 6.324375 0.875 5.71875 C0 4 0 4 0 0 Z " fill="#F7E2D3" transform="translate(243,102)"/>
<path d="M0 0 C3.13709554 2.56671454 3.93921568 5.14055066 5 9 C5.96697127 20.41528423 4.37781222 29.01263445 -1 39 C-2.23367942 35.29896173 -1.5463808 32.82466559 -1 29 C-1.33 28.01 -1.66 27.02 -2 26 C-1.505 24.515 -1.505 24.515 -1 23 C-0.34 23 0.32 23 1 23 C3.36160155 19.30999758 3.35347546 16.31240062 3 12 C2.31635185 9.62501421 1.52922815 7.32740046 0.65625 5.015625 C0 3 0 3 0 0 Z " fill="#BF5B42" transform="translate(212,105)"/>
<path d="M0 0 C2.97 0.495 2.97 0.495 6 1 C5.67 1.99 5.34 2.98 5 4 C5.66 4 6.32 4 7 4 C7.12375 4.928125 7.12375 4.928125 7.25 5.875 C7.78648121 8.15723303 7.78648121 8.15723303 9.875 9 C10.926875 9.495 10.926875 9.495 12 10 C13.03145371 11.30915279 14.03542166 12.64082143 15 14 C15.66 14.33 16.32 14.66 17 15 C15.35 15.99 13.7 16.98 12 18 C11.62488281 17.46890625 11.24976563 16.9378125 10.86328125 16.390625 C5.93730282 9.41745733 5.93730282 9.41745733 -1.3125 5.25 C-1.869375 5.1675 -2.42625 5.085 -3 5 C-3.33 5.99 -3.66 6.98 -4 8 C-4.33 6.35 -4.66 4.7 -5 3 C-3.35 3 -1.7 3 0 3 C0 2.01 0 1.02 0 0 Z " fill="#BD583C" transform="translate(215,97)"/>
<path d="M0 0 C1.06294873 3.64870344 0.76960736 4.64705973 -1 8 C-1.57389473 10.02092929 -2.05993783 12.05146785 -2.53515625 14.09765625 C-2.93999113 15.75441748 -3.4606718 17.38201541 -4 19 C-4.4021552 26.64094877 -2.87700593 33.62725597 -1 41 C-4 40 -4 40 -5.125 37.8125 C-8.86345405 25.79604057 -7.31113268 14.50924197 -1.8125 3.375 C-1.214375 2.26125 -0.61625 1.1475 0 0 Z " fill="#AC5A42" transform="translate(259,144)"/>
<path d="M0 0 C1.5 1.3125 1.5 1.3125 3 3 C3 3.99 3 4.98 3 6 C-20.76 6 -44.52 6 -69 6 C-69 5.67 -69 5.34 -69 5 C-46.56 4.67 -24.12 4.34 -1 4 C-0.67 2.68 -0.34 1.36 0 0 Z " fill="#F9E7D6" transform="translate(290,287)"/>
<path d="M0 0 C0.33 0 0.66 0 1 0 C1.48212214 1.56159059 1.96055873 3.12431928 2.4375 4.6875 C2.83775391 5.99267578 2.83775391 5.99267578 3.24609375 7.32421875 C3.96344529 9.87025921 4.517541 12.4003423 5 15 C1.5601241 15 -0.43271292 14.53558242 -2.95703125 12.15234375 C-4.69798248 10.14191738 -6.37770589 8.10706247 -8 6 C-6 5 -6 5 -3 5 C-2.67 4.34 -2.34 3.68 -2 3 C-1.34 3 -0.68 3 0 3 C0 2.01 0 1.02 0 0 Z " fill="#F3E3D1" transform="translate(221,173)"/>
<path d="M0 0 C0.33 0 0.66 0 1 0 C1.28875 1.2375 1.5775 2.475 1.875 3.75 C2.46506031 6.1611817 3.02345753 8.04444585 4.1875 10.25 C5.24150171 12.52015752 4.82341154 13.69444768 4 16 C-0.3488459 15.49821009 -2.89443878 12.90302462 -6 10 C-7.375 7.6875 -7.375 7.6875 -8 6 C-6.02 5.67 -4.04 5.34 -2 5 C-2 5.66 -2 6.32 -2 7 C-1.34 7 -0.68 7 0 7 C0 4.69 0 2.38 0 0 Z " fill="#F0DDCE" transform="translate(252,173)"/>
<path d="M0 0 C0 0.66 0 1.32 0 2 C-1.6396875 2.4021875 -1.6396875 2.4021875 -3.3125 2.8125 C-9.87386654 4.45284164 -16.40961198 6.20140041 -22.875 8.1875 C-25.74987207 8.93496674 -28.05079821 9.1787395 -31 9 C-26.63778822 2.45668233 -14.65360616 1.79864526 -7.18359375 0.296875 C-4.76666613 -0.03172339 -2.43624772 -0.05137957 0 0 Z " fill="#CB7055" transform="translate(231,49)"/>
<path d="M0 0 C0.99 0 1.98 0 3 0 C3 0.66 3 1.32 3 2 C7.62730711 3.0448758 12.28853878 3.51756279 17 4 C17 3.34 17 2.68 17 2 C19.97 2 22.94 2 26 2 C22.01408399 5.98591601 18.76731572 6.99603536 13.2734375 7.00390625 C3.76556992 6.3760282 3.76556992 6.3760282 0 3 C0 2.01 0 1.02 0 0 Z " fill="#B9624D" transform="translate(237,448)"/>
<path d="M0 0 C0.33 0.66 0.66 1.32 1 2 C0.18251747 4.31867772 -0.69398921 6.50823206 -1.6875 8.75 C-2.20699219 9.96171875 -2.72648438 11.1734375 -3.26171875 12.421875 C-5 16 -5 16 -7.20703125 19.265625 C-9.27417163 21.87316124 -9.27417163 21.87316124 -9 25 C-9.99 25 -10.98 25 -12 25 C-9.29943244 15.48097818 -6.23127128 7.76388169 0 0 Z " fill="#CB6144" transform="translate(135,103)"/>
<path d="M0 0 C0.66 0 1.32 0 2 0 C2.66 4.62 3.32 9.24 4 14 C2.35 14.33 0.7 14.66 -1 15 C-1 14.34 -1 13.68 -1 13 C-1.99 13 -2.98 13 -4 13 C-3.67 11.35 -3.34 9.7 -3 8 C-2.01 8.33 -1.02 8.66 0 9 C0 8.34 0 7.68 0 7 C-0.99 6.67 -1.98 6.34 -3 6 C-2.67 5.01 -2.34 4.02 -2 3 C-1.34 3 -0.68 3 0 3 C0 2.01 0 1.02 0 0 Z " fill="#C05239" transform="translate(164,209)"/>
<path d="M0 0 C1.32 0 2.64 0 4 0 C4 0.66 4 1.32 4 2 C4.66 2 5.32 2 6 2 C6 3.98 6 5.96 6 8 C6.99 7.34 7.98 6.68 9 6 C9.25030977 3.41619823 9.25030977 3.41619823 9 1 C10 3 10 3 11 5 C11.556875 5.99 11.556875 5.99 12.125 7 C13 9 13 9 13 13 C8.43892323 12.53670323 6.64108933 11.06251075 3.6875 7.625 C2.99011719 6.83351562 2.29273438 6.04203125 1.57421875 5.2265625 C0 3 0 3 0 0 Z " fill="#F6E5D8" transform="translate(274,176)"/>
<path d="M0 0 C4.53489627 -0.04986353 9.0696289 -0.08593637 13.60473633 -0.10986328 C15.14382715 -0.11985006 16.68289935 -0.13344419 18.22192383 -0.15087891 C26.37701039 -0.24087337 34.08976364 -0.28577933 42 2 C42 2.33 42 2.66 42 3 C41.41299316 2.9285376 40.82598633 2.8570752 40.22119141 2.78344727 C33.58227889 2.03950962 27.05080469 1.87956578 20.375 1.9375 C18.86873047 1.94426758 18.86873047 1.94426758 17.33203125 1.95117188 C14.88795529 1.96281033 12.4440118 1.9791576 10 2 C9.67 2.66 9.34 3.32 9 4 C7.02 3.34 5.04 2.68 3 2 C2.67 2.33 2.34 2.66 2 3 C-0.67058851 3.14115161 -3.32432238 3.04247107 -6 3 C-6 2.67 -6 2.34 -6 2 C-4.02 2 -2.04 2 0 2 C0 1.34 0 0.68 0 0 Z " fill="#C4563A" transform="translate(231,49)"/>
<path d="M0 0 C0 0.66 0 1.32 0 2 C-0.99 2.495 -0.99 2.495 -2 3 C-1.67 3.66 -1.34 4.32 -1 5 C-1.93446535 7.03144641 -2.93224776 9.03533587 -4 11 C-6.31 11 -8.62 11 -11 11 C-10.75 8.625 -10.75 8.625 -10 6 C-7.9375 4.6875 -7.9375 4.6875 -6 4 C-6 3.34 -6 2.68 -6 2 C-2.25 0 -2.25 0 0 0 Z " fill="#F5E1D2" transform="translate(218,282)"/>
<path d="M0 0 C0.33 0.66 0.66 1.32 1 2 C0.34 2 -0.32 2 -1 2 C-1 2.66 -1 3.32 -1 4 C-1.99 4 -2.98 4 -4 4 C-4.33 5.32 -4.66 6.64 -5 8 C-6.32 8 -7.64 8 -9 8 C-9 8.66 -9 9.32 -9 10 C-7.35 10.33 -5.7 10.66 -4 11 C-3.67 11.99 -3.34 12.98 -3 14 C-5.97 13.01 -8.94 12.02 -12 11 C-12.33 9.35 -12.66 7.7 -13 6 C-8.71 4.02 -4.42 2.04 0 0 Z " fill="#AB523F" transform="translate(293,271)"/>
<path d="M0 0 C0.33 0.99 0.66 1.98 1 3 C0.236875 3.721875 -0.52625 4.44375 -1.3125 5.1875 C-4.044086 7.83926978 -4.044086 7.83926978 -5.6875 10.8125 C-6.120625 11.534375 -6.55375 12.25625 -7 13 C-7.66 13 -8.32 13 -9 13 C-9.33 13.66 -9.66 14.32 -10 15 C-10.66 15 -11.32 15 -12 15 C-12.33 15.99 -12.66 16.98 -13 18 C-13.99 17.67 -14.98 17.34 -16 17 C-14.88266271 15.49428343 -13.75589965 13.99555708 -12.625 12.5 C-11.99851563 11.6646875 -11.37203125 10.829375 -10.7265625 9.96875 C-10.15679687 9.3190625 -9.58703125 8.669375 -9 8 C-8.34 8 -7.68 8 -7 8 C-7 7.34 -7 6.68 -7 6 C-6.34 6 -5.68 6 -5 6 C-5 5.34 -5 4.68 -5 4 C-4.34 4 -3.68 4 -3 4 C-3 3.34 -3 2.68 -3 2 C-2.01 1.34 -1.02 0.68 0 0 Z " fill="#D78165" transform="translate(152,85)"/>
<path d="M0 0 C0 4.09939665 -1.52298101 5.78656995 -4 9 C-5.64821244 10.03013277 -7.31503702 11.03114628 -9 12 C-11.27537692 14.57183314 -11.27537692 14.57183314 -13 17 C-13.99 16.67 -14.98 16.34 -16 16 C-15.01 15.67 -14.02 15.34 -13 15 C-11.71993634 12.89165986 -10.95000168 10.84615901 -10.1875 8.5 C-8.11251824 4.13161735 -4.31756226 1.91891656 0 0 Z " fill="#C96245" transform="translate(163,77)"/>
<path d="M0 0 C2.1875 2.75 2.1875 2.75 3.1875 5.75 C4.1775 6.08 5.1675 6.41 6.1875 6.75 C5.8575 7.74 5.5275 8.73 5.1875 9.75 C4.65125 9.0075 4.115 8.265 3.5625 7.5 C1.01740591 4.55304895 -1.4644952 2.71513326 -4.8125 0.75 C-5.4725 0.75 -6.1325 0.75 -6.8125 0.75 C-6.28966845 3.46872407 -5.48490259 5.37999502 -4.1875 7.875 C-3.73375 8.82375 -3.28 9.7725 -2.8125 10.75 C-3.1425 11.41 -3.4725 12.07 -3.8125 12.75 C-4.4725 12.75 -5.1325 12.75 -5.8125 12.75 C-5.8125 12.09 -5.8125 11.43 -5.8125 10.75 C-6.4725 10.75 -7.1325 10.75 -7.8125 10.75 C-8.79498524 6.6972484 -8.89409574 2.91138263 -8.8125 -1.25 C-4.67852075 -2.49980768 -3.47082471 -2.77665976 0 0 Z " fill="#B55A41" transform="translate(280.8125,101.25)"/>
<path d="M0 0 C1.98 0.66 3.96 1.32 6 2 C5.67 3.65 5.34 5.3 5 7 C2.69 7.66 0.38 8.32 -2 9 C-2 9.66 -2 10.32 -2 11 C-3.62626404 12.38232443 -5.2925002 13.71937515 -7 15 C-6.67 13.02 -6.34 11.04 -6 9 C-5.34 9 -4.68 9 -4 9 C-4 8.34 -4 7.68 -4 7 C-3.34 7 -2.68 7 -2 7 C-1.34 4.69 -0.68 2.38 0 0 Z " fill="#B25338" transform="translate(214,275)"/>
<path d="M0 0 C8.54753914 1.95274441 16.1430157 5.14020962 24 9 C22.68 9.99 21.36 10.98 20 12 C19.401875 11.690625 18.80375 11.38125 18.1875 11.0625 C15.91043228 9.89790296 15.91043228 9.89790296 13 9 C12.3125 6.9375 12.3125 6.9375 12 5 C11.319375 5.061875 10.63875 5.12375 9.9375 5.1875 C6.08063875 4.94131737 3.48920406 3.64197838 0 2 C0 1.34 0 0.68 0 0 Z " fill="#BF5E43" transform="translate(293,54)"/>
<path d="M0 0 C0.33 0.66 0.66 1.32 1 2 C1.66 2 2.32 2 3 2 C2.97679688 2.66386719 2.95359375 3.32773438 2.9296875 4.01171875 C2.82813701 8.98043923 3.10865718 12.38985188 5 17 C5.1739114 20.00764423 5.11800629 22.9908395 5 26 C2.59928822 22.39893233 1.78882152 18.83598531 0.8125 14.6875 C0.62236328 13.94048828 0.43222656 13.19347656 0.23632812 12.42382812 C-0.82855062 7.94819384 -1.13873886 4.56220857 0 0 Z " fill="#CB6D54" transform="translate(108,214)"/>
<path d="M0 0 C0.66 0 1.32 0 2 0 C1.855625 0.68964844 1.71125 1.37929687 1.5625 2.08984375 C-0.2769608 11.40211404 -0.63311407 18.86154527 2 28 C2.33827132 29.33208911 2.6729105 30.66512122 3 32 C2.34 32 1.68 32 1 32 C-4.10444894 22.97606348 -4.16064872 14.65423305 -1.5 4.75 C-1.01548282 3.16186035 -0.5213408 1.57643529 0 0 Z " fill="#B65B41" transform="translate(208,144)"/>
<path d="M0 0 C0.33 0.99 0.66 1.98 1 3 C1.66 2.34 2.32 1.68 3 1 C3.66 0.67 4.32 0.34 5 0 C5.66 0.66 6.32 1.32 7 2 C6.67 2.66 6.34 3.32 6 4 C5.34 4 4.68 4 4 4 C4.66 5.32 5.32 6.64 6 8 C3.69 7.34 1.38 6.68 -1 6 C-0.67 7.65 -0.34 9.3 0 11 C-0.99 10.67 -1.98 10.34 -3 10 C-3.75 7.25 -3.75 7.25 -4 4 C-2.0625 1.625 -2.0625 1.625 0 0 Z " fill="#C1593F" transform="translate(244,96)"/>
<path d="M0 0 C3.11906238 3.63550844 5.28722175 7.22548976 7.3125 11.5625 C7.84488281 12.67753906 8.37726563 13.79257813 8.92578125 14.94140625 C9.99026344 17.97227736 10.21351913 19.09748932 9 22 C7 19 7 19 7 17 C6.34 17 5.68 17 5 17 C4.896875 16.0925 4.79375 15.185 4.6875 14.25 C3.98374295 10.92314849 3.05946072 9.59671135 1 7 C1 6.01 1 5.02 1 4 C0.34 4 -0.32 4 -1 4 C-0.67 2.68 -0.34 1.36 0 0 Z " fill="#BA664C" transform="translate(375,119)"/>
<path d="M0 0 C1.41778293 2.83556587 0.86257622 4.9908706 0.5625 8.125 C0.46066406 9.22070312 0.35882813 10.31640625 0.25390625 11.4453125 C0.17011719 12.28835937 0.08632812 13.13140625 0 14 C-0.33 14 -0.66 14 -1 14 C-1 11.69 -1 9.38 -1 7 C-1.7425 7.763125 -2.485 8.52625 -3.25 9.3125 C-5.4263323 11.4393702 -7.52167796 13.2559956 -10 15 C-9.57742724 13.5164999 -9.13643678 12.03823576 -8.6875 10.5625 C-8.44386719 9.73878906 -8.20023438 8.91507813 -7.94921875 8.06640625 C-7.63597656 7.38449219 -7.32273438 6.70257813 -7 6 C-6.01 5.67 -5.02 5.34 -4 5 C-3.67 4.34 -3.34 3.68 -3 3 C-2.34 3 -1.68 3 -1 3 C-0.67 2.01 -0.34 1.02 0 0 Z " fill="#C8593A" transform="translate(143,97)"/>
<path d="M0 0 C0.33 0.66 0.66 1.32 1 2 C0.34 2 -0.32 2 -1 2 C-1.9652139 4.31651336 -2.89062172 6.56248687 -3.5 9 C-4.71632298 13.86529192 -6.73786197 17.1941723 -10 21 C-10 19.68 -10 18.36 -10 17 C-9.34 17 -8.68 17 -8 17 C-8 13.37 -8 9.74 -8 6 C-7.01 5.67 -6.02 5.34 -5 5 C-5 4.34 -5 3.68 -5 3 C-2.5 1.375 -2.5 1.375 0 0 Z " fill="#B55236" transform="translate(338,326)"/>
<path d="M0 0 C5.32022769 -0.02476651 10.64042162 -0.04289156 15.96069336 -0.05493164 C17.76961858 -0.05995238 19.57853976 -0.06677029 21.38745117 -0.07543945 C23.99138386 -0.08760402 26.59526277 -0.09325098 29.19921875 -0.09765625 C30.00461594 -0.10281754 30.81001312 -0.10797882 31.63981628 -0.11329651 C35.56472601 -0.11368637 39.16699982 0.02915245 43 1 C39.06934867 3.62043422 37.57726683 2.77535512 33 2 C30.36063332 1.85828338 27.73832994 1.74795408 25.09765625 1.68359375 C24.3750914 1.66281265 23.65252655 1.64203156 22.9080658 1.62062073 C20.6262963 1.55584574 18.34442333 1.4965797 16.0625 1.4375 C14.50454709 1.39424603 12.9466042 1.35062969 11.38867188 1.30664062 C7.59255078 1.20023961 3.79632686 1.09877501 0 1 C0 0.67 0 0.34 0 0 Z " fill="#CB785B" transform="translate(231,48)"/>
<path d="M0 0 C-0.62009318 3.0500277 -1.61636982 5.27126402 -3.28515625 7.890625 C-3.73310547 8.59960938 -4.18105469 9.30859375 -4.64257812 10.0390625 C-5.11115234 10.76867187 -5.57972656 11.49828125 -6.0625 12.25 C-6.53494141 12.99507813 -7.00738281 13.74015625 -7.49414062 14.5078125 C-8.65790906 16.34162943 -9.82831288 18.17123244 -11 20 C-12.0546875 18.140625 -12.0546875 18.140625 -13 16 C-12.125 13.75 -12.125 13.75 -11 12 C-10.34 12 -9.68 12 -9 12 C-8.67 11.34 -8.34 10.68 -8 10 C-7.34 10 -6.68 10 -6 10 C-6 9.01 -6 8.02 -6 7 C-5.34 7 -4.68 7 -4 7 C-4.226875 6.401875 -4.45375 5.80375 -4.6875 5.1875 C-4.790625 4.465625 -4.89375 3.74375 -5 3 C-3.38441968 0.84589291 -2.74502455 0 0 0 Z " fill="#B9674D" transform="translate(293,403)"/>
<path d="M0 0 C3.30210394 3.30210394 3.07601429 7.63177159 3.3125 12.125 C3.28186029 18.09974402 1.09417752 23.47473699 -1 29 C-1.33 29 -1.66 29 -2 29 C-1.57985661 23.92511006 -0.92034149 19.73684234 1 15 C1.25086724 11.83267579 1.25086724 11.83267579 1 9 C0.67 8.67 0.34 8.34 0 8 C-0.14115161 5.32941149 -0.04247107 2.67567762 0 0 Z " fill="#F1D0BE" transform="translate(290,119)"/>
<path d="M0 0 C0.66 1.32 1.32 2.64 2 4 C-0.6875 5.625 -0.6875 5.625 -4 7 C-6.875 6.1875 -6.875 6.1875 -9 5 C-9 4.01 -9 3.02 -9 2 C-5.86501708 0.14223235 -3.62528568 -0.20140476 0 0 Z " fill="#EDE3D7" transform="translate(297,264)"/>
<path d="M0 0 C0.66 0.66 1.32 1.32 2 2 C-0.66666667 6 -3.33333333 10 -6 14 C-6.33 13.34 -6.66 12.68 -7 12 C-7.99 12 -8.98 12 -10 12 C-8.8125 9.5625 -8.8125 9.5625 -7 7 C-4.3125 6.1875 -4.3125 6.1875 -2 6 C-1.855625 5.38125 -1.71125 4.7625 -1.5625 4.125 C-1 2 -1 2 0 0 Z " fill="#B74C32" transform="translate(300,389)"/>
<path d="M0 0 C0.66 0.33 1.32 0.66 2 1 C0.4994106 4.00117879 -1.83882403 4.59903432 -4.8125 6.0625 C-5.87082031 6.58972656 -6.92914063 7.11695313 -8.01953125 7.66015625 C-10.39351834 8.72736146 -12.46239975 9.50231085 -15 10 C-15 9.34 -15 8.68 -15 8 C-14.01 8 -13.02 8 -12 8 C-12 7.01 -12 6.02 -12 5 C-10.04578965 4.13644222 -8.08648653 3.28440066 -6.125 2.4375 C-5.03445312 1.96183594 -3.94390625 1.48617187 -2.8203125 0.99609375 C-1.88960937 0.66738281 -0.95890625 0.33867188 0 0 Z " fill="#CC6B4E" transform="translate(199,56)"/>
<path d="M0 0 C0.66 0 1.32 0 2 0 C1.83757812 0.845625 1.67515625 1.69125 1.5078125 2.5625 C0.98601942 6.09463777 0.86717401 9.43134629 0.875 13 C0.87242187 14.175625 0.86984375 15.35125 0.8671875 16.5625 C0.99216667 19.79725504 1.3901076 22.82468717 2 26 C1.34 25.67 0.68 25.34 0 25 C-2.1529955 16.57407935 -3.20918597 8.22353904 0 0 Z " fill="#BD644E" transform="translate(238,147)"/>
<path d="M0 0 C2.3125 0.5 2.3125 0.5 5 2 C6.34219295 4.5690412 7.20425705 7.21813439 8 10 C7.01 10.33 6.02 10.66 5 11 C4.67 9.68 4.34 8.36 4 7 C3.01 7 2.02 7 1 7 C-1 4 -1 4 -0.625 1.8125 C-0.41875 1.214375 -0.2125 0.61625 0 0 Z " fill="#EFEDE4" transform="translate(274,101)"/>
<path d="M0 0 C0.99 0.33 1.98 0.66 3 1 C-0.85421412 9.6309795 -0.85421412 9.6309795 -5 12 C-5.125 5.25 -5.125 5.25 -4 3 C-3.01 2.67 -2.02 2.34 -1 2 C-0.67 1.34 -0.34 0.68 0 0 Z " fill="#AC4F34" transform="translate(319,356)"/>
<path d="M0 0 C0 3.72207387 -1.17964568 5.46395589 -3 8.6875 C-3.8353125 10.17830078 -3.8353125 10.17830078 -4.6875 11.69921875 C-5.3371875 12.83810547 -5.3371875 12.83810547 -6 14 C-6.66 14 -7.32 14 -8 14 C-8 12.35 -8 10.7 -8 9 C-7.34 8.67 -6.68 8.34 -6 8 C-5.64587656 6.67203709 -5.31478446 5.33783393 -5 4 C-3 1 -3 1 0 0 Z " fill="#B45A42" transform="translate(363,286)"/>
<path d="M0 0 C0.99 0.495 0.99 0.495 2 1 C2 2.65 2 4.3 2 6 C2.66 6.33 3.32 6.66 4 7 C3.52433594 8.21042969 3.52433594 8.21042969 3.0390625 9.4453125 C1.81087411 13.64700961 1.55200991 17.5235065 1.375 21.875 C1.33632812 22.65875 1.29765625 23.4425 1.2578125 24.25 C1.16433378 26.16631367 1.08111505 28.08312319 1 30 C0.67 30 0.34 30 0 30 C0 20.1 0 10.2 0 0 Z " fill="#C55234" transform="translate(141,137)"/>
<path d="M0 0 C1.50303217 2.38716874 2.01411453 3.71065206 1.875 6.5625 C0.82403075 9.49020006 -0.38722542 10.39862203 -3 12 C-3 11.01 -3 10.02 -3 9 C-3.66 8.67 -4.32 8.34 -5 8 C-4.34 8 -3.68 8 -3 8 C-3.2475 7.4225 -3.495 6.845 -3.75 6.25 C-3.8325 5.5075 -3.915 4.765 -4 4 C-2.0625 1.75 -2.0625 1.75 0 0 Z " fill="#B14328" transform="translate(309,369)"/>
<path d="M0 0 C0.99 0.33 1.98 0.66 3 1 C4.1875 3.5625 4.1875 3.5625 5 6 C6.65 5.34 8.3 4.68 10 4 C9.34 6.97 8.68 9.94 8 13 C4.7457985 10.16569547 3.4793247 8.31392226 3 4 C2.34 4 1.68 4 1 4 C0.67 2.68 0.34 1.36 0 0 Z " fill="#C36249" transform="translate(150,310)"/>
<path d="M0 0 C1.5 1.3125 1.5 1.3125 3 3 C3 3.99 3 4.98 3 6 C-5.91 6 -14.82 6 -24 6 C-24 5.67 -24 5.34 -24 5 C-16.30881404 4.24833087 -8.72772107 3.86309156 -1 4 C-0.67 2.68 -0.34 1.36 0 0 Z " fill="#F8E6D7" transform="translate(290,287)"/>
<path d="M0 0 C0.99 0 1.98 0 3 0 C2.29445932 3.66881155 0.72264494 6.70450534 -1 10 C-2.32 9.67 -3.64 9.34 -5 9 C-5 7.68 -5 6.36 -5 5 C-3.35 4.67 -1.7 4.34 0 4 C-0.33 3.01 -0.66 2.02 -1 1 C-0.67 0.67 -0.34 0.34 0 0 Z " fill="#AF4F34" transform="translate(367,274)"/>
<path d="M0 0 C2.17723742 2.17723742 2.41899846 3.00485979 3.0703125 5.9140625 C3.24433594 6.67460937 3.41835937 7.43515625 3.59765625 8.21875 C3.77167969 9.0128125 3.94570312 9.806875 4.125 10.625 C4.30675781 11.42679688 4.48851562 12.22859375 4.67578125 13.0546875 C5.12370789 15.03499476 5.56270604 17.0173177 6 19 C3 18 3 18 1.8515625 15.86328125 C0.87869952 12.59214106 0.5813351 9.59202908 0.375 6.1875 C0.30023438 5.02605469 0.22546875 3.86460937 0.1484375 2.66796875 C0.09945312 1.78753906 0.05046875 0.90710938 0 0 Z " fill="#AB5039" transform="translate(252,166)"/>
<path d="M0 0 C0.99 0.33 1.98 0.66 3 1 C2.34 2.98 1.68 4.96 1 7 C0.34 7 -0.32 7 -1 7 C-1.28875 7.969375 -1.5775 8.93875 -1.875 9.9375 C-3 13 -3 13 -5 14 C-5 11.03 -5 8.06 -5 5 C-4.01 5.495 -4.01 5.495 -3 6 C-0.89767656 3.1315587 -0.89767656 3.1315587 0 0 Z " fill="#B56550" transform="translate(274,428)"/>
<path d="M0 0 C0.99 0.33 1.98 0.66 3 1 C3 2.65 3 4.3 3 6 C3.66 6 4.32 6 5 6 C6.15837626 10.05431692 5.83691257 12.21812119 4 16 C2.02 15.34 0.04 14.68 -2 14 C-1.67 13.34 -1.34 12.68 -1 12 C1.475 12.99 1.475 12.99 4 14 C3.71125 13.15695313 3.4225 12.31390625 3.125 11.4453125 C2.75375 10.34960938 2.3825 9.25390625 2 8.125 C1.62875 7.03445312 1.2575 5.94390625 0.875 4.8203125 C0 2 0 2 0 0 Z " fill="#AD593E" transform="translate(283,175)"/>
<path d="M0 0 C0.33 0 0.66 0 1 0 C1 3.96 1 7.92 1 12 C1.66 12 2.32 12 3 12 C5.14285714 19.42857143 5.14285714 19.42857143 6 23 C5.34 23.33 4.68 23.66 4 24 C-0.1428035 15.97331823 -0.46321804 8.92981438 0 0 Z " fill="#F8DBCB" transform="translate(238,153)"/>
<path d="M0 0 C0.33 0.66 0.66 1.32 1 2 C1.66 2 2.32 2 3 2 C3 4.64 3 7.28 3 10 C3.99 10.33 4.98 10.66 6 11 C5.67 12.32 5.34 13.64 5 15 C3.77243105 13.26343905 2.56843147 11.51019623 1.375 9.75 C0.36566406 8.28820312 0.36566406 8.28820312 -0.6640625 6.796875 C-2 4 -2 4 -1.2109375 1.640625 C-0.81132812 1.09921875 -0.41171875 0.5578125 0 0 Z " fill="#C1684D" transform="translate(195,379)"/>
<path d="M0 0 C0.66 0.33 1.32 0.66 2 1 C2.144375 1.61875 2.28875 2.2375 2.4375 2.875 C2.81292927 5.07834268 2.81292927 5.07834268 4.4921875 6.33984375 C6.42743634 8.47062292 6.48187905 9.84993093 6.6875 12.6875 C6.75324219 13.49574219 6.81898437 14.30398438 6.88671875 15.13671875 C6.92410156 15.75160156 6.96148437 16.36648438 7 17 C3.99157981 15.49578991 3.3199263 13.14864383 1.8125 10.1875 C1.26207031 9.12917969 0.71164063 8.07085937 0.14453125 6.98046875 C-1.01199085 3.96877469 -1.21992215 2.9122997 0 0 Z " fill="#C96D54" transform="translate(120,253)"/>
<path d="M0 0 C0.66 0.33 1.32 0.66 2 1 C2 6.28 2 11.56 2 17 C1.34 17 0.68 17 0 17 C-1.14819277 11.1314592 -0.77313045 5.9114744 0 0 Z " fill="#A7472E" transform="translate(393,190)"/>
<path d="M0 0 C0.33 0.66 0.66 1.32 1 2 C1.66 2 2.32 2 3 2 C3 2.66 3 3.32 3 4 C3.66 4 4.32 4 5 4 C6.625 6.5 6.625 6.5 8 9 C7.34 9 6.68 9 6 9 C5.67 9.66 5.34 10.32 5 11 C2.9375 11.625 2.9375 11.625 1 12 C1.20625 11.05125 1.4125 10.1025 1.625 9.125 C1.74875 8.09375 1.8725 7.0625 2 6 C1.34 5.34 0.68 4.68 0 4 C0 2.68 0 1.36 0 0 Z " fill="#BF5C3F" transform="translate(352,89)"/>
<path d="M0 0 C0.33 0 0.66 0 1 0 C1.06058594 0.91523438 1.12117187 1.83046875 1.18359375 2.7734375 C1.26738281 3.96195313 1.35117188 5.15046875 1.4375 6.375 C1.51871094 7.55835938 1.59992188 8.74171875 1.68359375 9.9609375 C1.81084936 12.91518901 1.81084936 12.91518901 3 15 C3.039992 16.99960012 3.04346799 19.00047242 3 21 C-0.97885555 15.03171668 -1.66203674 8.03606491 -1 1 C-0.67 0.67 -0.34 0.34 0 0 Z " fill="#F6D4C0" transform="translate(208,154)"/>
<path d="M0 0 C0.66 0 1.32 0 2 0 C2.85373239 7.02804699 3.12109311 13.92278069 3 21 C2.67 21 2.34 21 2 21 C1.90912109 20.04287109 1.90912109 20.04287109 1.81640625 19.06640625 C1.73261719 18.24011719 1.64882813 17.41382813 1.5625 16.5625 C1.48128906 15.73878906 1.40007812 14.91507813 1.31640625 14.06640625 C1.21069185 12.01337975 1.21069185 12.01337975 0 11 C-0.07226502 9.14712498 -0.0838122 7.29166122 -0.0625 5.4375 C-0.05347656 4.42558594 -0.04445313 3.41367188 -0.03515625 2.37109375 C-0.02355469 1.58863281 -0.01195312 0.80617187 0 0 Z " fill="#C7755D" transform="translate(393,179)"/>
<path d="M0 0 C0.33 0.66 0.66 1.32 1 2 C0.328125 3.91015625 0.328125 3.91015625 -0.75 6.0625 C-1.09546875 6.77535156 -1.4409375 7.48820312 -1.796875 8.22265625 C-3 10 -3 10 -6 11 C-6 11.66 -6 12.32 -6 13 C-6.66 13 -7.32 13 -8 13 C-6.40956621 7.91061189 -3.2553049 4.12543357 0 0 Z " fill="#DC9378" transform="translate(135,103)"/>
<path d="M0 0 C0.33 0.66 0.66 1.32 1 2 C0.34 2 -0.32 2 -1 2 C-1 2.66 -1 3.32 -1 4 C-1.99 4 -2.98 4 -4 4 C-4.33 5.32 -4.66 6.64 -5 8 C-7.97 7.505 -7.97 7.505 -11 7 C-7.7129243 3.18699218 -4.60272162 1.77027754 0 0 Z " fill="#A74D34" transform="translate(293,271)"/>
<path d="M0 0 C0.33 0 0.66 0 1 0 C1.16853933 9.94382022 1.16853933 9.94382022 0 13 C-1.65 13.66 -3.3 14.32 -5 15 C-3.35 10.05 -1.7 5.1 0 0 Z " fill="#A95841" transform="translate(292,136)"/>
<path d="M0 0 C0.33 0 0.66 0 1 0 C1.05422947 1.4370809 1.09289723 2.87475462 1.125 4.3125 C1.14820312 5.11300781 1.17140625 5.91351563 1.1953125 6.73828125 C1 9 1 9 -1 12 C-1.66158043 14.04584079 -1.66158043 14.04584079 -2.125 16.1875 C-2.41375 17.445625 -2.7025 18.70375 -3 20 C-4.04940487 16.85178538 -3.98606526 16.0650509 -3.22265625 12.98828125 C-3.03896484 12.23095703 -2.85527344 11.47363281 -2.66601562 10.69335938 C-2.46685547 9.90767578 -2.26769531 9.12199219 -2.0625 8.3125 C-1.86720703 7.51521484 -1.67191406 6.71792969 -1.47070312 5.89648438 C-0.98771618 3.92919611 -0.4948037 1.96434946 0 0 Z " fill="#DB896D" transform="translate(111,148)"/>
<path d="M0 0 C1.984375 0.92578125 1.984375 0.92578125 4 3 C4.52339018 6.06833622 4.37472825 9.08608398 4.25 12.1875 C4.23195313 13.03248047 4.21390625 13.87746094 4.1953125 14.74804688 C4.14820586 16.83251573 4.07646233 18.91640144 4 21 C3.67 21 3.34 21 3 21 C2.86722656 19.81921875 2.73445313 18.6384375 2.59765625 17.421875 C2.4194102 15.86456738 2.24101707 14.30727658 2.0625 12.75 C1.97548828 11.97269531 1.88847656 11.19539063 1.79882812 10.39453125 C1.71181641 9.64042969 1.62480469 8.88632813 1.53515625 8.109375 C1.456604 7.41811523 1.37805176 6.72685547 1.29711914 6.01464844 C0.99455017 3.96304687 0.53587616 2.00217465 0 0 Z " fill="#AD5A44" transform="translate(259,115)"/>
<path d="M0 0 C0.66 1.32 1.32 2.64 2 4 C2.556875 4.99 2.556875 4.99 3.125 6 C4 8 4 8 4 12 C1.625 11.6875 1.625 11.6875 -1 11 C-1.66 10.01 -2.32 9.02 -3 8 C-1.68 8.33 -0.36 8.66 1 9 C0.67 6.03 0.34 3.06 0 0 Z " fill="#F4D1BF" transform="translate(283,177)"/>
<path d="M0 0 C0.33 0 0.66 0 1 0 C1.05394705 2.60444348 1.09364469 5.20776998 1.125 7.8125 C1.14175781 8.55048828 1.15851563 9.28847656 1.17578125 10.04882812 C1.21074628 13.91246426 1.19397555 15.70903668 -1 19 C-1.66 19 -2.32 19 -3 19 C-2.01 12.73 -1.02 6.46 0 0 Z " fill="#FAD8C6" transform="translate(248,117)"/>
<path d="M0 0 C1.73017508 0.45451184 3.45909877 0.91378857 5.1875 1.375 C6.15042969 1.63023438 7.11335938 1.88546875 8.10546875 2.1484375 C10.82210207 2.94766296 13.39137175 3.9031362 16 5 C14.02 5.99 14.02 5.99 12 7 C12 6.34 12 5.68 12 5 C11.319375 5.061875 10.63875 5.12375 9.9375 5.1875 C6.08063875 4.94131737 3.48920406 3.64197838 0 2 C0 1.34 0 0.68 0 0 Z " fill="#C9725A" transform="translate(293,54)"/>
<path d="M0 0 C1.32 0.66 2.64 1.32 4 2 C3.67 4.31 3.34 6.62 3 9 C2.34 9 1.68 9 1 9 C-1.14809171 5.77786243 -1.29386153 4.72224599 -1 1 C-0.67 0.67 -0.34 0.34 0 0 Z " fill="#B44225" transform="translate(266,433)"/>
<path d="M0 0 C0.2475 0.61875 0.495 1.2375 0.75 1.875 C1.81105913 4.16137472 1.81105913 4.16137472 4.0625 4.875 C4.701875 5.24625 5.34125 5.6175 6 6 C6.75 9.125 6.75 9.125 7 12 C6.01 12 5.02 12 4 12 C3.13353333 10.56988027 2.28218171 9.13059381 1.4375 7.6875 C0.72400391 6.48673828 0.72400391 6.48673828 -0.00390625 5.26171875 C-1 3 -1 3 0 0 Z " fill="#C56D51" transform="translate(128,269)"/>
<path d="M0 0 C0.99 0 1.98 0 3 0 C4.1875 2.125 4.1875 2.125 5 5 C3.625 8.3125 3.625 8.3125 2 11 C0.9375 9.125 0.9375 9.125 0 7 C0.33 6.34 0.66 5.68 1 5 C0.72057545 3.32345271 0.39171753 1.65391846 0 0 Z " fill="#B45039" transform="translate(377,250)"/>
<path d="M0 0 C1.485 0.99 1.485 0.99 3 2 C3.34057617 3.97119141 3.34057617 3.97119141 3.29296875 6.3515625 C3.28330078 7.20234375 3.27363281 8.053125 3.26367188 8.9296875 C3.23853516 9.81914063 3.21339844 10.70859375 3.1875 11.625 C3.17396484 12.5221875 3.16042969 13.419375 3.14648438 14.34375 C3.11106925 16.56309789 3.06168461 18.78125188 3 21 C2.67 21 2.34 21 2 21 C1.95101562 20.05898437 1.90203125 19.11796875 1.8515625 18.1484375 C1.77679688 16.90320313 1.70203125 15.65796875 1.625 14.375 C1.55539063 13.14523438 1.48578125 11.91546875 1.4140625 10.6484375 C1.0185513 7.16346145 0.23738151 4.26950399 -1 1 C-0.67 0.67 -0.34 0.34 0 0 Z " fill="#B76D56" transform="translate(229,115)"/>
<path d="M0 0 C0.33 0 0.66 0 1 0 C1.12375 1.093125 1.2475 2.18625 1.375 3.3125 C1.75464801 7.07381802 1.75464801 7.07381802 4 10 C3.34 10.66 2.68 11.32 2 12 C0.35 9.03 -1.3 6.06 -3 3 C-2.01 2.01 -1.02 1.02 0 0 Z " fill="#C46D54" transform="translate(147,298)"/>
<path d="M0 0 C0 3 0 3 -2.25 5.5625 C-6.25877763 9.11573472 -6.25877763 9.11573472 -9 10 C-10.34302277 9.70814606 -11.6789271 9.37901884 -13 9 C-12.22914063 8.51789063 -11.45828125 8.03578125 -10.6640625 7.5390625 C-9.66117187 6.90742188 -8.65828125 6.27578125 -7.625 5.625 C-6.62726563 4.99851562 -5.62953125 4.37203125 -4.6015625 3.7265625 C-1.9751981 2.10730288 -1.9751981 2.10730288 0 0 Z " fill="#A24E3B" transform="translate(307,261)"/>
<path d="M0 0 C1.25127906 3.54667178 0.72285053 5.72253438 -0.4375 9.25 C-0.72496094 10.14203125 -1.01242187 11.0340625 -1.30859375 11.953125 C-1.53675781 12.62859375 -1.76492188 13.3040625 -2 14 C-2.99 12.68 -3.98 11.36 -5 10 C-4.34 9.67 -3.68 9.34 -3 9 C-2.66073053 6.66752239 -2.32759934 4.33414529 -2 2 C-1.34 1.34 -0.68 0.68 0 0 Z " fill="#B85E48" transform="translate(391,223)"/>
<path d="M0 0 C2.03833424 1.2739589 4.03852126 2.61061923 6 4 C6 4.66 6 5.32 6 6 C6.66 6 7.32 6 8 6 C7.67 6.66 7.34 7.32 7 8 C5.02 8 3.04 8 1 8 C1.33 6.35 1.66 4.7 2 3 C0.68 2.67 -0.64 2.34 -2 2 C-1.34 2 -0.68 2 0 2 C0 1.34 0 0.68 0 0 Z " fill="#C06645" transform="translate(343,81)"/>
<path d="M0 0 C0.33 0 0.66 0 1 0 C0.67 4.62 0.34 9.24 0 14 C-0.66 14 -1.32 14 -2 14 C-2.05410687 12.22950311 -2.09284119 10.45853151 -2.125 8.6875 C-2.14820313 7.70136719 -2.17140625 6.71523437 -2.1953125 5.69921875 C-2 3 -2 3 0 0 Z " fill="#A44528" transform="translate(285,161)"/>
<path d="M0 0 C3.14958831 3.42346555 3.56179109 6.44262737 4 11 C3.34 10.01 2.68 9.02 2 8 C0.68 8.33 -0.64 8.66 -2 9 C-1.34 6.03 -0.68 3.06 0 0 Z " fill="#C3674D" transform="translate(244,107)"/>
<path d="M0 0 C0.66 0.33 1.32 0.66 2 1 C2 1.66 2 2.32 2 3 C1.34 3 0.68 3 0 3 C0 3.99 0 4.98 0 6 C-0.66 6 -1.32 6 -2 6 C-2.33 6.99 -2.66 7.98 -3 9 C-3.66 8.01 -4.32 7.02 -5 6 C-4.34 5.34 -3.68 4.68 -3 4 C-3.66 3.34 -4.32 2.68 -5 2 C-4.360625 1.855625 -3.72125 1.71125 -3.0625 1.5625 C-1.02454854 1.18992819 -1.02454854 1.18992819 0 0 Z " fill="#AA3F23" transform="translate(287,407)"/>
<path d="M0 0 C0.66 0.66 1.32 1.32 2 2 C-1.3 5.3 -4.6 8.6 -8 12 C-8.66 11.01 -9.32 10.02 -10 9 C-9.01 9 -8.02 9 -7 9 C-7 8.34 -7 7.68 -7 7 C-5.34614767 5.65080468 -3.678298 4.31866272 -2 3 C-1.34 2.01 -0.68 1.02 0 0 Z " fill="#F7DDCC" transform="translate(314,251)"/>
<path d="M0 0 C0.5625 1.9375 0.5625 1.9375 1 4 C0.67 4.33 0.34 4.66 0 5 C-0.16099403 7.02852478 -0.3188291 9.05775294 -0.42578125 11.08984375 C-1 13 -1 13 -3.04296875 14.25390625 C-3.68878906 14.50011719 -4.33460937 14.74632812 -5 15 C-4.54705135 13.24859857 -4.08741252 11.49892656 -3.625 9.75 C-3.36976562 8.77546875 -3.11453125 7.8009375 -2.8515625 6.796875 C-2.10401491 4.34162697 -1.22876183 2.24382595 0 0 Z " fill="#DA8D74" transform="translate(117,132)"/>
<path d="M0 0 C-2.39509338 2.89932357 -4.31245243 3.50168276 -8 4 C-8.33 3.01 -8.66 2.02 -9 1 C-5.57367167 -0.61798838 -3.61944899 -1.34053666 0 0 Z " fill="#C85538" transform="translate(204,59)"/>
<path d="M0 0 C0.99 0.99 1.98 1.98 3 3 C2.01 5.97 1.02 8.94 0 12 C-0.97229218 8.11083128 -1.15031917 4.98345803 -1 1 C-0.67 0.67 -0.34 0.34 0 0 Z " fill="#F3DED2" transform="translate(327,225)"/>
<path d="M0 0 C1.32 0.33 2.64 0.66 4 1 C4.05422947 2.4370809 4.09289723 3.87475462 4.125 5.3125 C4.14820313 6.11300781 4.17140625 6.91351563 4.1953125 7.73828125 C4 10 4 10 2 13 C2.04125 11.96875 2.0825 10.9375 2.125 9.875 C2.00424851 6.13170373 1.35127982 3.46265453 0 0 Z " fill="#F0E2D3" transform="translate(328,214)"/>
<path d="M0 0 C1 2 1 2 0.22265625 4.3828125 C-0.16019531 5.28773437 -0.54304688 6.19265625 -0.9375 7.125 C-1.31777344 8.03507812 -1.69804688 8.94515625 -2.08984375 9.8828125 C-2.39019531 10.58148438 -2.69054687 11.28015625 -3 12 C-3.99 11.67 -4.98 11.34 -6 11 C-4.02 7.37 -2.04 3.74 0 0 Z " fill="#DA8870" transform="translate(126,116)"/>
<path d="M0 0 C2.93200474 2.85276137 5.64315404 5.65079784 8 9 C7.34 10.32 6.68 11.64 6 13 C6 11.35 6 9.7 6 8 C5.01 8 4.02 8 3 8 C0 2.25 0 2.25 0 0 Z " fill="#F2D1BF" transform="translate(281,105)"/>
<path d="M0 0 C6.875 2.75 6.875 2.75 8 5 C5 5 2 5 -1 5 C-0.67 3.35 -0.34 1.7 0 0 Z " fill="#C16145" transform="translate(317,64)"/>
<path d="M0 0 C0.66 0 1.32 0 2 0 C2 0.66 2 1.32 2 2 C4.475 2.99 4.475 2.99 7 4 C6.34 4.66 5.68 5.32 5 6 C2.375 5.625 2.375 5.625 0 5 C0 3.33333333 0 1.66666667 0 0 Z " fill="#B95438" transform="translate(194,263)"/>
<path d="M0 0 C0.66 0 1.32 0 2 0 C2 0.66 2 1.32 2 2 C2.66 2.33 3.32 2.66 4 3 C3.67 3.33 3.34 3.66 3 4 C3.66 4.33 4.32 4.66 5 5 C4.67 5.66 4.34 6.32 4 7 C1.9375 7.625 1.9375 7.625 0 8 C-1.09658936 4.71023192 -0.79953138 3.28696233 0 0 Z " fill="#B64E31" transform="translate(257,183)"/>
<path d="M0 0 C1.32 0.33 2.64 0.66 4 1 C3.47535095 5.61691161 2.92509086 7.09987886 0 11 C0 7.37 0 3.74 0 0 Z " fill="#F6E4D4" transform="translate(284,145)"/>
<path d="M0 0 C2.9375 0.375 2.9375 0.375 6 1 C6.33 1.66 6.66 2.32 7 3 C5.68 3 4.36 3 3 3 C3.33 4.65 3.66 6.3 4 8 C0 3.375 0 3.375 0 0 Z " fill="#FADAC8" transform="translate(212,102)"/>
<path d="M0 0 C0.33 0.66 0.66 1.32 1 2 C0.01 2 -0.98 2 -2 2 C-2.33 2.99 -2.66 3.98 -3 5 C-4.84765625 5.73046875 -4.84765625 5.73046875 -7.0625 6.1875 C-7.79597656 6.34605469 -8.52945313 6.50460938 -9.28515625 6.66796875 C-10.13400391 6.83232422 -10.13400391 6.83232422 -11 7 C-7.7129243 3.18699218 -4.60272162 1.77027754 0 0 Z " fill="#D6876D" transform="translate(186,62)"/>
<path d="M0 0 C0.66 0.66 1.32 1.32 2 2 C1.625 5.125 1.625 5.125 1 8 C-3 3.25 -3 3.25 -3 1 C-2.01 0.67 -1.02 0.34 0 0 Z " fill="#C16248" transform="translate(171,339)"/>
<path d="M0 0 C4.85077588 1.11940982 7.777893 2.1334716 11 6 C10.01 6.495 10.01 6.495 9 7 C7.4972763 6.02501855 5.99788037 5.04490611 4.5 4.0625 C3.6646875 3.51722656 2.829375 2.97195313 1.96875 2.41015625 C1.3190625 1.94480469 0.669375 1.47945313 0 1 C0 0.67 0 0.34 0 0 Z " fill="#F4D2BF" transform="translate(198,265)"/>
<path d="M0 0 C0.33 0 0.66 0 1 0 C1.21755666 5.4389165 1.10428384 9.87080814 -1 15 C-1.66 15 -2.32 15 -3 15 C-2.01 10.05 -1.02 5.1 0 0 Z " fill="#A95D47" transform="translate(333,214)"/>
<path d="M0 0 C3.80984844 2.77079887 4.06840752 6.62868145 5 11 C4.01 11.495 4.01 11.495 3 12 C2.49440092 10.56445975 1.9957251 9.1264798 1.5 7.6875 C1.2215625 6.88699219 0.943125 6.08648437 0.65625 5.26171875 C0 3 0 3 0 0 Z " fill="#BB664D" transform="translate(212,105)"/>
<path d="M0 0 C2.97 0 5.94 0 9 0 C6.1709277 2.8290723 5.61855575 3.37611108 2 4 C1.34 2.68 0.68 1.36 0 0 Z " fill="#BE6751" transform="translate(254,450)"/>
<path d="M0 0 C-0.33 1.98 -0.66 3.96 -1 6 C-1.99 6.33 -2.98 6.66 -4 7 C-4.33 5.35 -4.66 3.7 -5 2 C-2 0 -2 0 0 0 Z " fill="#AF4933" transform="translate(350,308)"/>
<path d="M0 0 C0.66 0 1.32 0 2 0 C2.3125 2.25 2.3125 2.25 2 5 C-0.5 7.3125 -0.5 7.3125 -3 9 C-2.01 6.03 -1.02 3.06 0 0 Z " fill="#CA6345" transform="translate(136,103)"/>
<path d="M0 0 C3.51005335 1.6380249 6.45543849 3.03134491 9 6 C6.69 6 4.38 6 2 6 C1.34 4.02 0.68 2.04 0 0 Z " fill="#C87355" transform="translate(326,69)"/>
<path d="M0 0 C-0.33 0.66 -0.66 1.32 -1 2 C-3.06640625 2.4140625 -3.06640625 2.4140625 -5.5625 2.625 C-6.38878906 2.69976562 -7.21507812 2.77453125 -8.06640625 2.8515625 C-9.02353516 2.92503906 -9.02353516 2.92503906 -10 3 C-10 2.34 -10 1.68 -10 1 C-6.61981469 -0.04005702 -3.5219721 -0.08004482 0 0 Z " fill="#AC5742" transform="translate(257,452)"/>
<path d="M0 0 C0.99 0.33 1.98 0.66 3 1 C3 1.66 3 2.32 3 3 C3.99 3.33 4.98 3.66 6 4 C6 4.99 6 5.98 6 7 C5.01 7 4.02 7 3 7 C0 2.77777778 0 2.77777778 0 0 Z " fill="#BE634B" transform="translate(179,358)"/>
<path d="M0 0 C1.5625 1.75 1.5625 1.75 3 4 C2.6875 6.25 2.6875 6.25 2 8 C0.0625 7.625 0.0625 7.625 -2 7 C-2.33 6.34 -2.66 5.68 -3 5 C-2.01 4.67 -1.02 4.34 0 4 C0 2.68 0 1.36 0 0 Z " fill="#F0CAB4" transform="translate(254,181)"/>
<path d="M0 0 C2.15377564 2.62198774 3.40072174 4.64404172 4 8 C3.01 8 2.02 8 1 8 C1 7.34 1 6.68 1 6 C0.34 6 -0.32 6 -1 6 C-1.042721 4.33388095 -1.04063832 2.66617115 -1 1 C-0.67 0.67 -0.34 0.34 0 0 Z " fill="#C26248" transform="translate(274,106)"/>
<path d="M0 0 C2.475 0.99 2.475 0.99 5 2 C4.01 2.33 3.02 2.66 2 3 C2.33 3.99 2.66 4.98 3 6 C2.01 6.495 2.01 6.495 1 7 C-1 4 -1 4 -0.625 1.8125 C-0.41875 1.214375 -0.2125 0.61625 0 0 Z " fill="#F5D3BE" transform="translate(274,101)"/>
<path d="M0 0 C0.66 0 1.32 0 2 0 C2.12375 0.639375 2.2475 1.27875 2.375 1.9375 C2.684375 2.9584375 2.684375 2.9584375 3 4 C3.66 4.33 4.32 4.66 5 5 C4.01 6.485 4.01 6.485 3 8 C1.35 6.02 -0.3 4.04 -2 2 C-1.34 2 -0.68 2 0 2 C0 1.34 0 0.68 0 0 Z " fill="#BB6046" transform="translate(220,101)"/>
<path d="M0 0 C0.99 0 1.98 0 3 0 C1.47291037 3.43595166 -0.59927045 6.11912454 -3 9 C-3.99 8.67 -4.98 8.34 -6 8 C-5.01 7.67 -4.02 7.34 -3 7 C-1.62665383 4.71108972 -0.84749184 2.54247553 0 0 Z " fill="#CA5E44" transform="translate(153,85)"/>
<path d="M0 0 C0.99 0.33 1.98 0.66 3 1 C3 1.66 3 2.32 3 3 C3.99 3.33 4.98 3.66 6 4 C5.67 4.99 5.34 5.98 5 7 C5.66 7.33 6.32 7.66 7 8 C6.34 8.66 5.68 9.32 5 10 C3.35 6.7 1.7 3.4 0 0 Z " fill="#C97A62" transform="translate(159,326)"/>
<path d="M0 0 C0.99 0 1.98 0 3 0 C1.8141763 3.37503669 0.72426311 5.64722731 -2 8 C-2 4.79604584 -1.25664978 2.90600261 0 0 Z " fill="#BE664F" transform="translate(372,267)"/>
<path d="M0 0 C2.95929119 2.75520215 5.03681826 5.46627288 7 9 C5.68 8.67 4.36 8.34 3 8 C2.67 6.68 2.34 5.36 2 4 C1.34 4 0.68 4 0 4 C0 2.68 0 1.36 0 0 Z " fill="#B65D42" transform="translate(178,245)"/>
<path d="M0 0 C1.98 0 3.96 0 6 0 C6 2.31 6 4.62 6 7 C1.125 2.25 1.125 2.25 0 0 Z " fill="#B95B3E" transform="translate(250,104)"/>
<path d="M0 0 C0.66 0.33 1.32 0.66 2 1 C0.68 2.65 -0.64 4.3 -2 6 C-3.65 5.67 -5.3 5.34 -7 5 C-2.25 1.125 -2.25 1.125 0 0 Z " fill="#C65639" transform="translate(183,66)"/>
<path d="M0 0 C-0.33 0.66 -0.66 1.32 -1 2 C-3.28515625 2.6328125 -3.28515625 2.6328125 -6.0625 3.125 C-6.98160156 3.29257812 -7.90070313 3.46015625 -8.84765625 3.6328125 C-9.91306641 3.81457031 -9.91306641 3.81457031 -11 4 C-9.71264403 1.42528807 -8.71510189 1.29583343 -6.0625 0.3125 C-5.35222656 0.04050781 -4.64195312 -0.23148438 -3.91015625 -0.51171875 C-2 -1 -2 -1 0 0 Z " fill="#DB8873" transform="translate(201,57)"/>
<path d="M0 0 C0.99 0.33 1.98 0.66 3 1 C1.92598892 3.91517292 1.22189824 5.77810176 -1 8 C-1.625 5.6875 -1.625 5.6875 -2 3 C-1.34 2.01 -0.68 1.02 0 0 Z " fill="#B4573B" transform="translate(282,415)"/>
<path d="M0 0 C0.66 0.66 1.32 1.32 2 2 C0.35 4.64 -1.3 7.28 -3 10 C-3.33 8.68 -3.66 7.36 -4 6 C-3.34 6 -2.68 6 -2 6 C-1.7834375 5.071875 -1.7834375 5.071875 -1.5625 4.125 C-1 2 -1 2 0 0 Z " fill="#B56348" transform="translate(300,389)"/>
<path d="M0 0 C1.5 1.3125 1.5 1.3125 3 3 C3 3.99 3 4.98 3 6 C0.69 6 -1.62 6 -4 6 C-3.01 5.34 -2.02 4.68 -1 4 C-0.27617533 1.94074861 -0.27617533 1.94074861 0 0 Z " fill="#F4D4C1" transform="translate(290,287)"/>
<path d="M0 0 C0.66 0.33 1.32 0.66 2 1 C1.67 2.32 1.34 3.64 1 5 C1.66 5.33 2.32 5.66 3 6 C2.01 6.33 1.02 6.66 0 7 C-0.66 6.34 -1.32 5.68 -2 5 C-1.34 3.35 -0.68 1.7 0 0 Z " fill="#B44F33" transform="translate(205,289)"/>
<path d="M0 0 C0.99 0.33 1.98 0.66 3 1 C1.77065985 4.68802044 0.06140622 5.72356973 -3 8 C-2.67 6.02 -2.34 4.04 -2 2 C-1.34 2 -0.68 2 0 2 C0 1.34 0 0.68 0 0 Z " fill="#BB5A3F" transform="translate(210,282)"/>
<path d="M0 0 C0.33 1.32 0.66 2.64 1 4 C0.34 4 -0.32 4 -1 4 C-1.33 4.99 -1.66 5.98 -2 7 C-2.99 6.67 -3.98 6.34 -5 6 C-3.35 4.02 -1.7 2.04 0 0 Z " fill="#DD9076" transform="translate(141,96)"/>
<path d="M0 0 C0.33 0.99 0.66 1.98 1 3 C-0.32 4.32 -1.64 5.64 -3 7 C-3.66 5.68 -4.32 4.36 -5 3 C-3.35 2.01 -1.7 1.02 0 0 Z " fill="#BB5537" transform="translate(239,443)"/>
<path d="M0 0 C0.99 0 1.98 0 3 0 C1.8141763 3.37503669 0.72426311 5.64722731 -2 8 C-1.125 1.125 -1.125 1.125 0 0 Z " fill="#BB6448" transform="translate(305,380)"/>
<path d="M0 0 C0.66 0.33 1.32 0.66 2 1 C2 2.66666667 2 4.33333333 2 6 C0.68 5.67 -0.64 5.34 -2 5 C-2 3.68 -2 2.36 -2 1 C-1.34 0.67 -0.68 0.34 0 0 Z " fill="#AD472B" transform="translate(364,278)"/>
<path d="M0 0 C2.31 1.98 4.62 3.96 7 6 C6.01 6.33 5.02 6.66 4 7 C1.23609263 4.59660228 0.95934081 3.83736322 0 0 Z " fill="#B2674C" transform="translate(185,254)"/>
<path d="M0 0 C0.99 0.495 0.99 0.495 2 1 C1.67 1.66 1.34 2.32 1 3 C1.66 3.33 2.32 3.66 3 4 C3 5.65 3 7.3 3 9 C2.01 8.67 1.02 8.34 0 8 C0 5.36 0 2.72 0 0 Z " fill="#F8F3E4" transform="translate(168,215)"/>
<path d="M0 0 C2.64 0.99 5.28 1.98 8 3 C6.3125 4.125 6.3125 4.125 4 5 C1.25 4.125 1.25 4.125 -1 3 C-0.67 2.01 -0.34 1.02 0 0 Z " fill="#C07055" transform="translate(218,185)"/>
<path d="M0 0 C0.66 0 1.32 0 2 0 C1.34 3.63 0.68 7.26 0 11 C-0.33 11 -0.66 11 -1 11 C-1.0270043 9.54176788 -1.04639787 8.08339325 -1.0625 6.625 C-1.07410156 5.81289062 -1.08570313 5.00078125 -1.09765625 4.1640625 C-1 2 -1 2 0 0 Z " fill="#BB624B" transform="translate(208,144)"/>
<path d="M0 0 C0.33 0 0.66 0 1 0 C0.67 2.64 0.34 5.28 0 8 C-0.66 8 -1.32 8 -2 8 C-2.125 5.125 -2.125 5.125 -2 2 C-1.34 1.34 -0.68 0.68 0 0 Z " fill="#C96749" transform="translate(114,145)"/>
<path d="M0 0 C2.97 0.495 2.97 0.495 6 1 C4.71937515 2.7074998 3.38232443 4.37373596 2 6 C1.34 6 0.68 6 0 6 C0 4.02 0 2.04 0 0 Z " fill="#BF5234" transform="translate(330,74)"/>
<path d="M0 0 C1.485 0.99 1.485 0.99 3 2 C2.625 4.9375 2.625 4.9375 2 8 C1.01 8.495 1.01 8.495 0 9 C0 6.03 0 3.06 0 0 Z " fill="#B65941" transform="translate(269,433)"/>
<path d="M0 0 C1 3 1 3 -0.3125 5.6875 C-0.869375 6.450625 -1.42625 7.21375 -2 8 C-2.66 8 -3.32 8 -4 8 C-3.40138258 5.64828869 -2.73075648 3.3140622 -2 1 C-1.34 0.67 -0.68 0.34 0 0 Z " fill="#9F462B" transform="translate(280,421)"/>
<path d="M0 0 C1.875 0.5625 1.875 0.5625 4 2 C5.25 5.625 5.25 5.625 6 9 C5.34 9 4.68 9 4 9 C0 2.25 0 2.25 0 0 Z " fill="#C97760" transform="translate(186,370)"/>
<path d="M0 0 C0.33 0.66 0.66 1.32 1 2 C1.66 2 2.32 2 3 2 C3 3.32 3 4.64 3 6 C1.68 6 0.36 6 -1 6 C-0.67 4.02 -0.34 2.04 0 0 Z " fill="#C86144" transform="translate(108,214)"/>
<path d="M0 0 C0.66 0 1.32 0 2 0 C1.1875 3.4375 1.1875 3.4375 0 7 C-0.99 7.33 -1.98 7.66 -3 8 C-1.125 2.25 -1.125 2.25 0 0 Z " fill="#FCE7D9" transform="translate(245,136)"/>
<path d="M0 0 C1.32 0.33 2.64 0.66 4 1 C4.33 2.65 4.66 4.3 5 6 C4.01 6.495 4.01 6.495 3 7 C2.67 5.35 2.34 3.7 2 2 C1.34 2 0.68 2 0 2 C0 1.34 0 0.68 0 0 Z " fill="#B5563D" transform="translate(380,134)"/>
<path d="M0 0 C0.66 0 1.32 0 2 0 C3.20272819 2.40545638 3.10071472 3.94996953 3.0625 6.625 C3.05347656 7.44226563 3.04445313 8.25953125 3.03515625 9.1015625 C3.02355469 9.72804688 3.01195312 10.35453125 3 11 C2.67 11 2.34 11 2 11 C1.34 7.37 0.68 3.74 0 0 Z " fill="#B05C49" transform="translate(290,116)"/>
<path d="M0 0 C0.33 0.99 0.66 1.98 1 3 C-0.8125 4.5625 -0.8125 4.5625 -3 6 C-3.99 5.67 -4.98 5.34 -6 5 C-4.02 3.35 -2.04 1.7 0 0 Z " fill="#DF9076" transform="translate(159,79)"/>
<path d="M0 0 C1.98 0 3.96 0 6 0 C4.09598862 1.90401138 2.66574314 2.93520439 -0.046875 3.19921875 C-2.03233273 3.1886578 -4.0169914 3.09915043 -6 3 C-6 2.67 -6 2.34 -6 2 C-4.02 2 -2.04 2 0 2 C0 1.34 0 0.68 0 0 Z " fill="#C45F44" transform="translate(231,49)"/>
</svg>
